<svg width="81" height="81" viewBox="0 0 81 81" fill="none" xmlns="http://www.w3.org/2000/svg">
<g id="maki:alcohol-shop" clip-path="url(#clip0_1922_1839)">
<path id="Vector" d="M75.6 21.6H54V40.5C54.0078 42.8883 54.807 45.2067 56.2726 47.0924C57.7382 48.9782 59.7875 50.3249 62.1 50.922V70.2H59.4C58.6839 70.2 57.9972 70.4845 57.4908 70.9908C56.9845 71.4971 56.7 72.1839 56.7 72.9C56.7 73.6161 56.9845 74.3028 57.4908 74.8092C57.9972 75.3155 58.6839 75.6 59.4 75.6H70.2C70.9161 75.6 71.6029 75.3155 72.1092 74.8092C72.6156 74.3028 72.9 73.6161 72.9 72.9C72.9 72.1839 72.6156 71.4971 72.1092 70.9908C71.6029 70.4845 70.9161 70.2 70.2 70.2H67.5V50.922C69.8125 50.3249 71.8619 48.9782 73.3275 47.0924C74.7931 45.2067 75.5923 42.8883 75.6 40.5V21.6ZM70.2 40.5C70.2 41.9322 69.6311 43.3057 68.6184 44.3184C67.6057 45.3311 66.2322 45.9 64.8 45.9C63.3679 45.9 61.9943 45.3311 60.9816 44.3184C59.9689 43.3057 59.4 41.9322 59.4 40.5V27H70.2V40.5ZM29.7 13.5V10.8C30.4161 10.8 31.1029 10.5155 31.6092 10.0092C32.1156 9.50284 32.4 8.81608 32.4 8.1C32.4 7.38391 32.1156 6.69716 31.6092 6.19081C31.1029 5.68446 30.4161 5.4 29.7 5.4V2.7C29.7 1.98392 29.4156 1.29716 28.9092 0.790812C28.4029 0.284463 27.7161 0 27 0L21.6 0C20.8839 0 20.1972 0.284463 19.6908 0.790812C19.1845 1.29716 18.9 1.98392 18.9 2.7V5.4C18.1839 5.4 17.4972 5.68446 16.9908 6.19081C16.4845 6.69716 16.2 7.38391 16.2 8.1C16.2 8.81608 16.4845 9.50284 16.9908 10.0092C17.4972 10.5155 18.1839 10.8 18.9 10.8V13.5C18.9 21.222 5.40002 30.078 5.40002 37.8V70.2C5.40002 71.6322 5.96895 73.0057 6.98165 74.0184C7.99434 75.0311 9.36786 75.6 10.8 75.6H37.8C39.1913 75.4783 40.4953 74.8703 41.4828 73.8828C42.4704 72.8952 43.0784 71.5913 43.2 70.2V37.8C43.2 30.51 29.7 20.79 29.7 13.5ZM24.3 64.8C20.7196 64.8 17.2858 63.3777 14.7541 60.8459C12.2223 58.3142 10.8 54.8804 10.8 51.3C10.8 47.7196 12.2223 44.2858 14.7541 41.7541C17.2858 39.2223 20.7196 37.8 24.3 37.8C27.8804 37.8 31.3142 39.2223 33.846 41.7541C36.3777 44.2858 37.8 47.7196 37.8 51.3C37.8 54.8804 36.3777 58.3142 33.846 60.8459C31.3142 63.3777 27.8804 64.8 24.3 64.8Z" fill="white"/>
</g>
<defs>
<clipPath id="clip0_1922_1839">
<rect width="81" height="81" fill="white"/>
</clipPath>
</defs>
</svg>
