<svg width="34" height="34" viewBox="0 0 34 34" fill="none" xmlns="http://www.w3.org/2000/svg">
<g id="ant-design:message-outlined">
<path id="Vector" d="M15.5651 16.9326C15.5651 17.3429 15.7281 17.7363 16.0182 18.0264C16.3083 18.3165 16.7017 18.4795 17.112 18.4795C17.5223 18.4795 17.9157 18.3165 18.2058 18.0264C18.4959 17.7363 18.6589 17.3429 18.6589 16.9326C18.6589 16.5224 18.4959 16.1289 18.2058 15.8388C17.9157 15.5487 17.5223 15.3857 17.112 15.3857C16.7017 15.3857 16.3083 15.5487 16.0182 15.8388C15.7281 16.1289 15.5651 16.5224 15.5651 16.9326ZM22.0104 16.9326C22.0104 17.3429 22.1734 17.7363 22.4635 18.0264C22.7536 18.3165 23.1471 18.4795 23.5573 18.4795C23.9676 18.4795 24.361 18.3165 24.6511 18.0264C24.9412 17.7363 25.1042 17.3429 25.1042 16.9326C25.1042 16.5224 24.9412 16.1289 24.6511 15.8388C24.361 15.5487 23.9676 15.3857 23.5573 15.3857C23.1471 15.3857 22.7536 15.5487 22.4635 15.8388C22.1734 16.1289 22.0104 16.5224 22.0104 16.9326ZM9.11981 16.9326C9.11981 17.3429 9.28279 17.7363 9.57288 18.0264C9.86298 18.3165 10.2564 18.4795 10.6667 18.4795C11.0769 18.4795 11.4704 18.3165 11.7605 18.0264C12.0506 17.7363 12.2136 17.3429 12.2136 16.9326C12.2136 16.5224 12.0506 16.1289 11.7605 15.8388C11.4704 15.5487 11.0769 15.3857 10.6667 15.3857C10.2564 15.3857 9.86298 15.5487 9.57288 15.8388C9.28279 16.1289 9.11981 16.5224 9.11981 16.9326ZM30.428 11.3381C29.6997 9.60752 28.6556 8.0542 27.3246 6.72002C26.003 5.39356 24.434 4.33919 22.7065 3.6166C20.9341 2.87217 19.052 2.49512 17.112 2.49512H17.0475C15.0946 2.50479 13.2029 2.8915 11.424 3.65205C9.71135 4.38205 8.15709 5.4383 6.84784 6.76191C5.52977 8.09287 4.4953 9.63975 3.77987 11.3639C3.03866 13.1492 2.66483 15.0474 2.6745 17.0003C2.68543 19.2383 3.21491 21.4434 4.22137 23.4424V28.3408C4.22137 28.734 4.37756 29.111 4.65557 29.3891C4.93357 29.6671 5.31063 29.8232 5.7038 29.8232H10.6055C12.6045 30.8297 14.8095 31.3592 17.0475 31.3701H17.1152C19.0456 31.3701 20.918 30.9963 22.6807 30.2647C24.3995 29.5508 25.9626 28.5087 27.2827 27.1968C28.6137 25.8787 29.661 24.3383 30.3926 22.6206C31.1531 20.8417 31.5398 18.95 31.5495 16.9971C31.5592 15.0345 31.1789 13.1299 30.428 11.3381ZM25.5586 25.4533C23.2995 27.6898 20.3024 28.9209 17.112 28.9209H17.0572C15.114 28.9112 13.1836 28.4278 11.4788 27.519L11.2081 27.374H6.67059V22.8365L6.52557 22.5658C5.61678 20.861 5.13339 18.9307 5.12372 16.9874C5.11083 13.7744 6.33866 10.758 8.5913 8.48603C10.8407 6.21406 13.8474 4.95723 17.0604 4.94434H17.1152C18.7265 4.94434 20.2895 5.25693 21.7623 5.87568C23.1996 6.47832 24.4887 7.34521 25.5973 8.45381C26.7026 9.55918 27.5727 10.8515 28.1754 12.2888C28.8006 13.7776 29.1132 15.3567 29.1067 16.9874C29.0874 20.1972 27.8273 23.2039 25.5586 25.4533Z" fill="#4349FF"/>
</g>
</svg>
