<svg width="57" height="57" viewBox="0 0 57 57" fill="none" xmlns="http://www.w3.org/2000/svg">
<g id="gridicons:chat">
<path id="Vector" d="M7.125 28.5C4.5125 28.5 2.375 26.3625 2.375 23.75V11.875C2.375 9.2625 4.5125 7.125 7.125 7.125H26.125C28.7375 7.125 30.875 9.2625 30.875 11.875V23.75C30.875 26.3625 28.7375 28.5 26.125 28.5H21.375V35.625L14.25 28.5H7.125ZM49.875 42.75C52.4875 42.75 54.625 40.6125 54.625 38V26.125C54.625 23.5125 52.4875 21.375 49.875 21.375H35.625V23.75C35.625 28.975 31.35 33.25 26.125 33.25V38C26.125 40.6125 28.2625 42.75 30.875 42.75H35.625V49.875L42.75 42.75H49.875Z" fill="#F8BD14"/>
</g>
</svg>
