<svg width="35" height="35" viewBox="0 0 35 35" fill="none" xmlns="http://www.w3.org/2000/svg">
<g id="solar:like-outline">
<path id="Vector" fill-rule="evenodd" clip-rule="evenodd" d="M18.2327 4.36809C18.028 4.30278 17.8061 4.31798 17.6122 4.41059C17.5161 4.45506 17.4308 4.51992 17.3623 4.60065C17.2938 4.68138 17.2437 4.77605 17.2155 4.87809L16.5412 7.47625C16.3056 8.38428 15.9632 9.26118 15.5212 10.0886C14.8341 11.3735 13.7957 12.3609 12.8323 13.1911L10.7952 14.9478C10.6393 15.0822 10.5176 15.2517 10.44 15.4423C10.3625 15.6329 10.3312 15.8392 10.3489 16.0443L11.4993 29.351C11.5272 29.6742 11.6752 29.9752 11.9141 30.1947C12.153 30.4141 12.4654 30.5362 12.7898 30.5368H19.3759C23.8186 30.5368 27.5628 27.4456 28.2811 23.2933L29.2798 17.5133C29.3122 17.3271 29.3036 17.136 29.2544 16.9534C29.2052 16.7708 29.1167 16.6012 28.9951 16.4564C28.8736 16.3117 28.7218 16.1952 28.5505 16.1152C28.3792 16.0352 28.1925 15.9936 28.0034 15.9933H20.6637C19.2796 15.9933 18.227 14.7523 18.4508 13.3866L19.3901 7.65759C19.5188 6.87289 19.4821 6.06996 19.2824 5.30025C19.2261 5.09649 19.1191 4.91028 18.9715 4.75895C18.8239 4.60761 18.6404 4.49606 18.4381 4.43467L18.2327 4.36809ZM16.6885 2.49667C17.3736 2.16708 18.159 2.11283 18.8829 2.34509L19.0883 2.41167C20.1891 2.76584 21.0476 3.64417 21.3394 4.76617C21.6128 5.823 21.6638 6.92517 21.4868 8.00184L20.5475 13.7308C20.5446 13.7477 20.5455 13.7651 20.55 13.7816C20.5545 13.7981 20.5625 13.8135 20.5736 13.8266C20.5847 13.8397 20.5985 13.8502 20.614 13.8574C20.6296 13.8646 20.6465 13.8683 20.6637 13.8683H28.002C30.127 13.8683 31.7363 15.7836 31.3737 17.876L30.3749 23.656C29.4711 28.8807 24.7961 32.6618 19.3759 32.6618H12.7898C11.9336 32.661 11.1087 32.3394 10.478 31.7603C9.84725 31.1813 9.45647 30.3868 9.38275 29.5338L8.231 16.227C8.18418 15.6866 8.26636 15.1428 8.47078 14.6404C8.67521 14.1379 8.99603 13.6912 9.40684 13.337L11.4468 11.5803C12.3748 10.7813 13.1553 10.0064 13.6455 9.087C14.0094 8.408 14.291 7.68795 14.4842 6.94217L15.1585 4.34542C15.264 3.94464 15.4555 3.57164 15.7197 3.25237C15.9839 2.9331 16.3145 2.67522 16.6885 2.49667ZM4.81684 13.8697C5.09062 13.8577 5.35844 13.952 5.56436 14.1328C5.77027 14.3136 5.89835 14.567 5.92184 14.8401L7.296 30.7578C7.31928 30.9948 7.294 31.2341 7.22169 31.461C7.14938 31.688 7.03157 31.8978 6.87546 32.0777C6.71934 32.2575 6.52819 32.4037 6.31369 32.5072C6.09919 32.6108 5.86584 32.6695 5.62788 32.6798C5.38993 32.6901 5.15237 32.6518 4.92971 32.5672C4.70705 32.4827 4.50397 32.3536 4.33287 32.1879C4.16178 32.0222 4.02625 31.8234 3.93457 31.6035C3.8429 31.3837 3.797 31.1475 3.79967 30.9093V14.9308C3.79942 14.6566 3.90512 14.393 4.09467 14.195C4.28423 13.997 4.54298 13.8814 4.81684 13.8697Z" fill="#4349FF"/>
</g>
</svg>
