<svg width="29" height="29" viewBox="0 0 29 29" fill="none" xmlns="http://www.w3.org/2000/svg">
<path fill-rule="evenodd" clip-rule="evenodd" d="M15.0293 3.35684C14.8546 3.30114 14.6654 3.3141 14.5 3.39309C14.4181 3.43102 14.3453 3.48634 14.2869 3.5552C14.2285 3.62406 14.1858 3.70481 14.1617 3.79184L13.5865 6.00792C13.3856 6.78242 13.0935 7.53036 12.7165 8.23609C12.1305 9.33205 11.2448 10.1743 10.4231 10.8823L8.6855 12.3807C8.55258 12.4953 8.44877 12.6399 8.3826 12.8025C8.31643 12.9651 8.2898 13.141 8.30488 13.3159L9.28604 24.6658C9.30991 24.9415 9.43615 25.1982 9.63991 25.3854C9.84366 25.5726 10.1101 25.6767 10.3868 25.6772H16.0044C19.7937 25.6772 22.9873 23.0406 23.6 19.499L24.4518 14.569C24.4795 14.4101 24.4721 14.2471 24.4301 14.0914C24.3882 13.9357 24.3127 13.791 24.209 13.6675C24.1053 13.544 23.9759 13.4447 23.8298 13.3764C23.6837 13.3082 23.5244 13.2727 23.3631 13.2724H17.1028C15.9222 13.2724 15.0244 12.2139 15.2153 11.0491L16.0165 6.16259C16.1262 5.49328 16.0949 4.80844 15.9246 4.15192C15.8766 3.97812 15.7853 3.8193 15.6594 3.69022C15.5335 3.56114 15.377 3.46599 15.2045 3.41363L15.0293 3.35684ZM13.7122 1.76063C14.2965 1.47951 14.9664 1.43324 15.5839 1.63134L15.7591 1.68813C16.698 1.99021 17.4302 2.73938 17.6791 3.69638C17.9123 4.5978 17.9558 5.53788 17.8048 6.45621L17.0037 11.3427C17.0012 11.3571 17.0019 11.3719 17.0058 11.386C17.0096 11.4001 17.0165 11.4132 17.0259 11.4244C17.0354 11.4355 17.0471 11.4445 17.0604 11.4507C17.0737 11.4568 17.0881 11.46 17.1028 11.4599H23.3619C25.1744 11.4599 26.5471 13.0936 26.2378 14.8783L25.3859 19.8083C24.615 24.2646 20.6275 27.4897 16.0044 27.4897H10.3868C9.65651 27.4891 8.95294 27.2147 8.41496 26.7208C7.87698 26.2269 7.54367 25.5493 7.48079 24.8217L6.49842 13.4718C6.45848 13.0109 6.52858 12.547 6.70294 12.1185C6.8773 11.6899 7.15094 11.3089 7.50134 11.0068L9.24134 9.50846C10.0328 8.82696 10.6986 8.16601 11.1167 7.3818C11.4271 6.80264 11.6672 6.18849 11.832 5.55238L12.4072 3.33751C12.4971 2.99566 12.6605 2.67752 12.8858 2.4052C13.1112 2.13288 13.3932 1.91292 13.7122 1.76063ZM3.58634 11.4611C3.81986 11.4509 4.04829 11.5313 4.22393 11.6856C4.39956 11.8398 4.5088 12.056 4.52884 12.2888L5.70092 25.8657C5.72077 26.0679 5.69921 26.272 5.63753 26.4655C5.57586 26.6591 5.47537 26.838 5.34222 26.9915C5.20906 27.1449 5.04602 27.2696 4.86307 27.3579C4.68011 27.4462 4.48107 27.4963 4.27811 27.5051C4.07515 27.5139 3.87252 27.4812 3.68261 27.4091C3.4927 27.3369 3.31948 27.2268 3.17354 27.0855C3.02761 26.9442 2.91201 26.7746 2.83382 26.5871C2.75562 26.3996 2.71647 26.1981 2.71875 25.995V12.3662C2.71854 12.1324 2.80869 11.9075 2.97037 11.7386C3.13205 11.5698 3.35275 11.4711 3.58634 11.4611Z" fill="white"/>
</svg>
